<?xml version="1.0" encoding="utf-8"?>
<!-- Generator: Adobe Illustrator 21.0.0, SVG Export Plug-In . SVG Version: 6.00 Build 0)  -->
<svg version="1.1" id="Layer_1" xmlns="http://www.w3.org/2000/svg" xmlns:xlink="http://www.w3.org/1999/xlink" x="0px" y="0px"
	 viewBox="0 0 2000 2000" style="enable-background:new 0 0 2000 2000;" xml:space="preserve">
<style type="text/css">
	.st0{fill:#FFFFFF;}
	.st1{fill:#FF2E3E;}
	.st2{fill:#FFCC1D;}
	.st3{fill:#29ABE2;}
</style>
<g>
	<g>
		<path class="st0" d="M837.6,819.6v-19.5h94v19.5h-37.2V919H875v-99.4H837.6z"/>
		<path class="st0" d="M947.9,919V800.1h19.5v47.4h53.4v-47.4h19.5V919h-19.5v-52h-53.4v52H947.9z"/>
		<path class="st0" d="M1064.6,919V800.1h77v19.5h-57.5v27.9h50.9V867h-50.9v32.5h57.5V919H1064.6z"/>
	</g>
	<g>
		<path class="st0" d="M781.7,916.7v19.5H819v114.2h19.5V936.2h55.8v-19.5H781.7z"/>
		<path class="st0" d="M890.7,1035.6V916.7h77v19.5h-57.5v27.9H961v19.5h-50.9v32.5h57.5v19.5H890.7z"/>
		<path class="st0" d="M1039.3,915.1c17.7,0,33.5,7.4,44.8,19.5l-13.7,13.9c-7.8-8.6-18.8-13.9-31.1-13.9c-23,0-41.6,18.7-41.6,41.6
			c0,23,18.7,41.6,41.6,41.6c12.2,0,23.3-5.3,31.1-13.9l13.7,13.9c-11.2,11.9-27.1,19.5-44.8,19.5c-33.7,0-61.1-27.4-61.1-61.1
			C978.2,942.5,1005.6,915.1,1039.3,915.1z"/>
		<path class="st0" d="M1097.8,1035.6V916.7h19.5v47.4h52.2v-47.4h19.5v118.9h-19.5v-52h-52.2v52H1097.8z"/>
	</g>
	<g>
		<path class="st0" d="M839,1033.3v81.9l-56.2-81.9h-18v118.9h19.5v-81.9l56,81.9h18.2v-118.9H839z"/>
		<path class="st0" d="M870.5,1152.2l45.3-118.9h21.3l45.3,118.9h-21l-9.4-24.6h-51l-9.4,24.6H870.5z M945,1108.1l-18.5-48.7
			l-18.7,48.7H945z"/>
		<path class="st0" d="M1014,1152.2h-19.5v-118.9h19.5V1152.2z"/>
		<path class="st0" d="M1027.4,1127.6l16.2-10.9c6.1,11.1,16.8,17.7,28.4,17.7c15.5,0,25.4-10.1,25.4-25.4l0.2-56.2v-19.5h19.3v75.6
			c0,26.1-18.5,44.9-44.3,44.9C1053.8,1153.9,1037.5,1144.5,1027.4,1127.6z"/>
		<path class="st0" d="M1123.4,1152.2l45.3-118.9h21.3l45.3,118.9h-21l-9.4-24.6h-51l-9.4,24.6H1123.4z M1197.9,1108.1l-18.5-48.7
			l-18.7,48.7H1197.9z"/>
	</g>
	<rect x="819" y="1033" class="st0" width="39.3" height="17.4"/>
</g>
<g>
	<rect x="680" y="1187.5" class="st1" width="215.8" height="12.4"/>
	<rect x="892.1" y="1187.5" class="st2" width="215.8" height="12.4"/>
	<rect x="1104.2" y="1187.5" class="st3" width="215.8" height="12.4"/>
</g>
</svg>
